<?xml version="1.0" standalone="no"?>
<!DOCTYPE svg PUBLIC "-//W3C//DTD SVG 20010904//EN"
 "http://www.w3.org/TR/2001/REC-SVG-20010904/DTD/svg10.dtd">
<svg version="1.0" xmlns="http://www.w3.org/2000/svg"
 width="1024.000000pt" height="1024.000000pt" viewBox="0 0 1024.000000 1024.000000"
 preserveAspectRatio="xMidYMid meet">

<g transform="translate(0.000000,1024.000000) scale(0.100000,-0.100000)"
fill="#000000" stroke="none">
<path d="M1022 5123 l3 -4098 4095 0 4095 0 0 4095 0 4095 -4098 3 -4097 2 2
-4097z m7894 3794 c5 -4 9 -1715 11 -3801 l2 -3793 -832 -6 c-762 -7 -4550 -6
-6119 1 l-658 2 0 3800 0 3800 453 3 c948 7 7136 2 7143 -6z"/>
<path d="M1368 8903 c6 -2 18 -2 25 0 6 3 1 5 -13 5 -14 0 -19 -2 -12 -5z"/>
<path d="M8898 8890 c-7 -24 -3 -38 8 -28 3 4 4 17 2 30 l-3 23 -7 -25z"/>
<path d="M1380 5126 l0 -3746 3740 0 3740 0 0 3740 0 3740 -3702 0 c-2037 0
-3720 3 -3740 6 l-38 7 0 -3747z m1716 3148 c26 -9 65 -27 86 -40 l39 -25 -52
-60 c-52 -60 -52 -60 -73 -41 -40 37 -88 55 -151 55 -126 0 -197 -82 -150
-173 19 -38 63 -63 165 -95 116 -38 170 -66 213 -114 45 -50 61 -106 54 -194
-6 -84 -41 -146 -110 -193 -63 -44 -114 -58 -212 -58 -96 0 -174 22 -240 66
-77 53 -79 61 -17 119 l52 51 44 -39 c73 -64 171 -81 253 -44 48 23 73 62 73
119 0 72 -43 105 -208 164 -175 61 -235 126 -235 252 -1 82 16 127 63 174 92
92 264 124 406 76z m984 -64 l0 -70 -140 0 -140 0 0 -396 c0 -357 -2 -396 -16
-390 -9 3 -42 6 -75 6 l-59 0 0 390 0 390 -140 0 -140 0 0 70 0 70 355 0 355
0 0 -70z m768 3 l-3 -68 -223 -3 -223 -2 3 -118 3 -117 208 -3 207 -2 0 -70 0
-70 -210 0 -211 0 3 -132 3 -133 233 -3 232 -2 0 -70 0 -70 -310 0 -310 0 0
465 0 465 300 0 301 0 -3 -67z m870 -380 c105 -247 194 -456 198 -466 6 -16 0
-18 -81 -15 l-88 3 -47 110 -47 110 -204 0 -204 -1 -44 -112 -44 -112 -84 0
c-45 0 -83 3 -83 6 0 3 42 106 94 227 52 122 138 326 191 452 54 127 99 233
102 238 2 4 37 7 77 7 l73 0 191 -447z m512 247 c0 -110 3 -200 8 -200 4 0 90
90 192 200 l185 200 98 0 99 0 -50 -57 c-28 -32 -69 -76 -92 -98 -23 -22 -91
-93 -152 -157 l-110 -118 39 -43 c190 -214 393 -447 393 -450 0 -2 -46 -4
-103 -6 l-103 -2 -35 44 c-19 24 -108 130 -199 235 l-165 192 -3 -235 -2 -236
-75 3 -75 3 -1 445 c0 245 0 453 0 463 1 15 12 17 76 17 l75 0 0 -200z m1390
130 l0 -70 -240 -320 c-132 -176 -240 -322 -240 -325 0 -3 113 -5 250 -5 l250
0 0 -65 0 -65 -212 -2 c-117 -2 -273 -3 -345 -3 l-133 0 0 68 0 68 137 182
c157 210 284 377 325 427 15 19 28 37 28 41 0 4 -96 6 -212 5 -117 -1 -223 0
-235 2 -21 4 -23 10 -23 68 l0 64 325 0 325 0 0 -70z m-2183 -1311 c97 -13
248 -63 333 -111 197 -111 379 -320 441 -505 26 -80 37 -194 27 -287 -4 -39
-26 -155 -49 -257 -38 -167 -42 -196 -42 -319 0 -233 40 -335 271 -687 209
-319 232 -370 232 -516 0 -144 -73 -300 -184 -391 -67 -55 -200 -122 -290
-147 -68 -18 -98 -21 -205 -17 -110 4 -137 9 -209 36 -102 38 -174 81 -287
173 -297 239 -540 355 -996 474 -415 108 -633 217 -824 413 -197 203 -292 484
-241 721 19 91 81 220 136 283 l41 47 27 -30 c29 -32 90 -52 132 -42 38 8 277
79 436 129 168 53 213 60 285 45 67 -14 108 -41 240 -157 57 -51 169 -149 249
-219 163 -143 274 -240 535 -471 343 -303 379 -334 392 -334 7 0 13 6 13 13 0
7 -241 294 -536 637 -295 344 -547 644 -561 668 -18 31 -27 63 -30 110 -6 77
0 97 101 334 73 174 82 225 45 272 -24 31 -20 40 29 65 135 68 313 94 489 70z
m-586 -192 c12 -25 11 -27 -104 -305 -64 -155 -75 -219 -52 -307 20 -78 44
-110 334 -447 135 -156 236 -276 225 -267 -10 9 -102 90 -203 180 -102 90
-237 210 -300 267 -124 110 -200 155 -290 172 -78 15 -114 6 -529 -121 -205
-63 -221 -66 -240 -47 -34 34 -11 58 217 228 207 152 209 154 280 146 164 -19
166 -19 208 2 48 25 93 75 94 105 0 12 1 61 2 109 2 105 -2 99 172 222 130 92
167 105 186 63z m1426 -1059 c-5 -137 -35 -328 -50 -328 -18 0 -2 248 23 353
13 53 25 97 28 97 3 0 2 -55 -1 -122z m-2771 -829 c62 -96 193 -224 297 -292
180 -119 347 -186 685 -273 119 -31 259 -71 311 -90 215 -78 422 -194 611
-344 167 -133 247 -180 380 -222 64 -20 95 -23 215 -22 129 0 148 3 233 31
169 56 320 169 390 293 l32 55 0 -100 c0 -153 -34 -257 -122 -373 -79 -102
-231 -194 -378 -228 -117 -26 -279 -16 -400 25 -118 40 -171 71 -324 184 -338
253 -568 362 -966 462 -399 100 -621 207 -801 385 -185 184 -278 414 -279 690
l0 45 34 -76 c18 -42 55 -110 82 -150z m1569 -1344 c40 -81 47 -144 33 -273
-11 -107 -11 -113 9 -140 47 -63 113 -23 113 69 0 27 4 49 9 49 17 0 81 -114
101 -179 36 -116 21 -235 -42 -327 -25 -37 -46 -47 -26 -13 10 17 10 23 1 26
-7 2 -9 11 -6 19 4 10 -2 14 -21 14 -14 0 -26 5 -26 10 0 6 6 10 13 10 8 0 8
3 -2 9 -19 12 -41 3 -41 -17 0 -12 -5 -9 -17 8 -9 14 -45 55 -79 91 -69 72
-80 94 -96 182 l-10 58 -29 -33 c-76 -89 -114 -207 -99 -308 9 -60 34 -135 51
-157 23 -27 -10 -12 -60 27 -103 82 -151 180 -151 311 0 128 22 176 190 409
52 72 85 175 77 243 l-6 51 45 -45 c25 -24 56 -66 69 -94z m-458 -180 c29 -57
35 -101 19 -138 -16 -39 -46 -68 -46 -44 0 8 -13 44 -30 79 -16 34 -30 76 -30
91 0 30 23 91 43 115 10 13 13 9 18 -24 3 -21 14 -57 26 -79z m903 -219 c0
-28 -37 -106 -51 -106 -4 0 -12 15 -18 33 -9 26 -8 44 4 83 8 27 15 60 15 74
1 23 3 21 25 -15 14 -22 25 -53 25 -69z m-1079 -29 c5 -21 9 -74 8 -118 -2
-63 1 -83 14 -96 15 -16 18 -15 36 1 11 10 21 32 23 50 3 30 4 28 36 -33 36
-71 41 -129 18 -185 -14 -34 -39 -59 -34 -34 2 7 -4 13 -12 13 -9 0 -16 -11
-18 -29 -3 -26 -2 -28 12 -17 24 20 19 7 -7 -17 l-22 -21 3 38 c3 32 -2 44
-37 85 -50 57 -71 96 -71 131 0 29 -11 32 -33 7 -45 -50 -62 -174 -32 -232 20
-38 8 -38 -32 -1 -48 44 -73 101 -73 168 0 68 21 119 79 195 49 66 71 115 71
165 l1 38 30 -35 c16 -19 34 -52 40 -73z m1251 -11 c17 -34 20 -52 15 -118 -4
-66 -2 -82 13 -101 22 -26 38 -16 56 36 l12 32 26 -55 c14 -31 26 -73 26 -95
0 -46 -39 -131 -58 -127 -6 1 -11 -1 -11 -5 3 -19 -2 -33 -12 -33 -7 0 -9 10
-5 25 7 29 -11 70 -44 100 -29 26 -50 68 -50 100 0 36 -16 31 -47 -16 -34 -51
-42 -128 -19 -183 l16 -39 -32 25 c-61 47 -90 137 -69 216 7 23 32 72 58 109
55 80 73 121 73 164 0 27 2 30 16 18 8 -7 25 -31 36 -53z m-432 -409 c0 -2
-10 -12 -22 -23 l-23 -19 19 23 c18 21 26 27 26 19z m-59 -41 c5 3 9 3 9 0 0
-3 -9 -10 -19 -15 -17 -9 -18 -8 -13 11 3 13 7 17 10 10 2 -7 8 -10 13 -6z
m-1743 -457 c20 -7 29 -16 26 -24 -4 -10 -12 -11 -31 -4 -38 14 -95 11 -115
-8 -40 -36 -13 -71 72 -93 132 -34 116 -160 -20 -160 -43 0 -110 23 -110 38 0
18 12 20 38 6 15 -8 48 -14 74 -14 37 0 50 5 62 22 24 33 1 59 -75 85 -100 35
-124 80 -70 134 24 23 38 29 74 29 24 0 58 -5 75 -11z m392 -4 c0 -11 -12 -15
-50 -15 l-50 0 -1 -127 c-1 -71 -1 -131 0 -135 0 -5 -8 -8 -19 -8 -19 0 -20 7
-20 135 l0 135 -50 0 c-38 0 -50 4 -50 15 0 13 20 15 120 15 100 0 120 -2 120
-15z m340 0 c0 -12 -16 -15 -85 -15 l-85 0 0 -50 0 -50 75 0 c60 0 75 -3 75
-15 0 -12 -15 -15 -75 -15 l-75 0 0 -55 0 -55 90 0 c73 0 90 -3 90 -15 0 -12
-19 -15 -110 -15 l-110 0 0 150 0 150 105 0 c87 0 105 -3 105 -15z m351 -119
c74 -163 75 -166 52 -166 -12 0 -26 13 -36 35 l-17 35 -84 0 -84 0 -12 -35
c-8 -25 -18 -35 -32 -35 -24 0 -27 -11 50 168 51 119 59 132 80 130 20 -3 34
-24 83 -132z m239 48 l0 -85 81 85 c62 65 87 86 107 86 25 0 22 -4 -36 -63
-34 -34 -62 -67 -62 -71 0 -5 27 -42 60 -82 33 -40 60 -75 60 -78 0 -3 -8 -6
-17 -6 -10 0 -45 30 -79 67 l-61 67 -26 -29 c-18 -21 -26 -42 -27 -67 0 -31
-4 -38 -20 -38 -19 0 -20 7 -20 150 0 143 1 150 20 150 18 0 20 -7 20 -86z
m390 21 l0 -65 85 0 85 0 0 65 c0 58 2 65 20 65 19 0 20 -7 20 -150 0 -143 -1
-150 -20 -150 -18 0 -20 7 -20 70 l0 70 -85 0 -85 0 0 -70 c0 -63 -2 -70 -20
-70 -19 0 -20 7 -20 150 0 143 1 150 20 150 18 0 20 -7 20 -65z m616 35 c79
-75 71 -196 -18 -250 -42 -26 -128 -27 -170 -2 -87 51 -95 193 -14 252 36 26
50 30 113 27 50 -2 68 -8 89 -27z m234 -70 c0 -109 10 -142 47 -159 93 -42
145 40 127 200 -6 56 -5 59 15 59 20 0 21 -4 21 -111 0 -155 -23 -189 -128
-189 -93 0 -122 47 -122 200 0 93 1 100 20 100 19 0 20 -7 20 -100z m544 90
c18 -6 24 -14 20 -25 -4 -11 -12 -14 -23 -9 -59 27 -141 6 -141 -35 0 -26 21
-40 80 -56 79 -21 100 -38 100 -85 0 -30 -6 -43 -27 -60 -24 -19 -38 -21 -95
-18 -45 2 -73 9 -84 20 -26 25 -8 41 26 23 68 -35 166 -3 140 46 -12 22 -34
33 -98 49 -83 21 -106 78 -53 131 25 24 38 29 80 29 27 0 61 -4 75 -10z m386
-5 c0 -12 -16 -15 -80 -15 l-80 0 0 -50 0 -50 75 0 c60 0 75 -3 75 -15 0 -12
-15 -15 -75 -15 l-75 0 0 -55 0 -55 85 0 c69 0 85 -3 85 -15 0 -12 -18 -15
-105 -15 l-105 0 0 150 0 150 100 0 c82 0 100 -3 100 -15z"/>
<path d="M5375 7909 c-38 -100 -71 -186 -73 -190 -2 -5 64 -9 147 -9 l151 0
-21 53 c-11 28 -44 114 -72 189 -29 76 -54 138 -57 138 -3 0 -36 -82 -75 -181z"/>
<path d="M5369 6611 c-214 -219 -457 -695 -252 -493 112 109 246 295 325 451
82 161 57 175 -73 42z"/>
<path d="M5860 6425 c-44 -32 -153 -155 -239 -269 -183 -242 -334 -526 -280
-526 35 0 255 264 385 462 79 119 184 312 184 336 0 22 -18 21 -50 -3z"/>
<path d="M5923 5728 c-113 -108 -219 -269 -268 -408 -15 -43 -13 -60 8 -60 17
0 133 121 189 195 88 119 176 290 164 321 -9 24 -26 16 -93 -48z"/>
<path d="M4188 5608 c-148 -154 -324 -405 -411 -585 -66 -138 -25 -145 89 -16
154 174 294 373 381 540 87 168 65 190 -59 61z"/>
<path d="M4705 5378 c-103 -110 -226 -271 -323 -423 -73 -116 -158 -276 -164
-310 -11 -66 90 21 233 200 101 127 248 351 313 477 92 177 72 195 -59 56z"/>
<path d="M5156 5039 c-111 -102 -247 -290 -337 -467 -45 -87 -62 -152 -40
-152 12 0 106 96 173 177 159 195 322 493 269 493 -5 0 -34 -23 -65 -51z"/>
<path d="M5534 4638 c-44 -46 -101 -117 -128 -158 -51 -77 -119 -214 -131
-262 -13 -52 28 -33 107 51 93 97 164 196 217 305 84 171 60 194 -65 64z"/>
<path d="M6140 4502 c-141 -147 -284 -356 -356 -521 -31 -70 -34 -101 -11
-101 19 0 160 154 244 267 101 136 175 254 220 350 63 137 32 139 -97 5z"/>
<path d="M5287 2759 c-3 -11 -3 -18 0 -15 4 3 13 0 21 -6 11 -10 13 -8 10 12
-4 31 -24 37 -31 9z"/>
<path d="M4750 2738 c0 -15 24 -43 64 -78 l29 -25 -23 33 c-13 17 -29 32 -34
32 -8 0 -8 3 0 8 6 4 14 16 17 26 7 17 6 17 -9 5 -13 -11 -18 -11 -21 -1 -3 6
-9 12 -14 12 -5 0 -9 -6 -9 -12z"/>
<path d="M4854 2648 c4 -12 0 -18 -12 -19 -14 0 -14 -2 -2 -6 8 -4 20 -13 27
-22 8 -10 12 -11 13 -4 0 6 -5 15 -10 18 -6 4 -8 10 -6 14 3 4 0 13 -6 21 -8
12 -9 12 -4 -2z"/>
<path d="M5779 2633 c-13 -16 -12 -17 4 -4 16 13 21 21 13 21 -2 0 -10 -8 -17
-17z"/>
<path d="M4424 2025 l-32 -75 65 0 c61 0 64 1 58 21 -9 28 -54 129 -57 129 -2
0 -17 -34 -34 -75z"/>
<path d="M5623 2090 c-41 -24 -53 -48 -53 -102 0 -50 19 -82 60 -103 57 -30
127 -9 155 45 57 109 -58 224 -162 160z"/>
<path d="M1331 1378 l-1 -48 48 1 47 2 -40 6 c-38 6 -40 8 -46 46 l-6 40 -2
-47z"/>
</g>
</svg>
